<?xml version="1.0" encoding="UTF-8"?>
<svg width="256" height="256" viewBox="0 0 256 256" fill="none" xmlns="http://www.w3.org/2000/svg" role="img" aria-label="Quill feather icon">
  <title>Quill feather icon</title>
  <desc>Simple minimalist black quill feather with transparent background</desc>
  <g fill="#000000">
    <!-- Feather body -->
    <path d="M214.5 38.5c-36.3 6.7-74.9 30.1-110.1 65.3-13.3 13.3-24.4 26.9-33.4 40.1l-21.1 31.1 27.6-8.4c12.7-3.9 28.7-9.8 44.7-18.6 5.9-3.2 11.6-6.7 17.1-10.3l-28.6 41.9c-2.1 3.1-1.6 7.3 1.2 9.9 2.8 2.6 7.1 2.8 10.2 0.5l43.3-31.6c11.8-8.6 23-18 33.1-28.1 38.3-38.3 59.8-81.4 65.3-115.1-14.1 6.3-30.4 10.5-49.3 13.3z"/>
    <!-- Shaft -->
    <path d="M31 224l62-62 10 10-62 62c-2.8 2.8-7.2 2.8-10 0s-2.8-7.2 0-10z"/>
  </g>
</svg>
