<?xml version="1.0" encoding="UTF-8"?>
<svg width="256" height="256" viewBox="0 0 256 256" xmlns="http://www.w3.org/2000/svg" role="img" aria-label="Quill feather icon">
  <title>Quill feather icon</title>
  <desc>Elegant quill feather silhouette with transparent background</desc>
  <g fill="currentColor">
    <!-- Feather blade -->
    <path d="M226 30c-40 8-88 38-128 78C67 139 44 173 32 202l38-10c13-4 30-11 47-20 10-5 20-12 29-18-7 11-15 22-23 34l-8 12c-2 3-1 7 2 9s7 2 9-1l13-10c22-17 44-36 62-54 46-46 66-93 73-125-15 7-34 12-49 15z"/>
    <!-- Quill shaft -->
    <path d="M28 228l66-66 10 10-66 66c-3 3-7 3-10 0s-3-7 0-10z"/>
  </g>
</svg>
